<?xml version="1.0" encoding="UTF-8"?>
<svg id="Layer_1" xmlns="http://www.w3.org/2000/svg" xmlns:xlink="http://www.w3.org/1999/xlink" version="1.1" viewBox="0 0 1400 1400">
  <!-- Generator: Adobe Illustrator 29.4.0, SVG Export Plug-In . SVG Version: 2.1.0 Build 152)  -->
  <defs>
    <style>
      .st0 {
        fill: none;
      }

      .st1 {
        fill: url(#linear-gradient2);
      }

      .st2 {
        fill: url(#linear-gradient1);
      }

      .st3 {
        fill: url(#linear-gradient3);
      }

      .st4 {
        fill: url(#linear-gradient6);
      }

      .st5 {
        fill: url(#linear-gradient5);
      }

      .st6 {
        fill: url(#linear-gradient4);
      }

      .st7 {
        fill: url(#linear-gradient);
      }

      .st8 {
        fill: #195d85;
      }
    </style>
    <linearGradient id="linear-gradient" x1="891.86" y1="1146.47" x2="521.22" y2="563.71" gradientTransform="translate(0 1400) scale(1 -1)" gradientUnits="userSpaceOnUse">
      <stop offset="0" stop-color="#2875a0"/>
      <stop offset=".11" stop-color="#367ea7"/>
      <stop offset=".31" stop-color="#5b98ba"/>
      <stop offset=".58" stop-color="#96c1d8"/>
      <stop offset=".87" stop-color="#ddf2fd"/>
    </linearGradient>
    <linearGradient id="linear-gradient1" x1="868.67" y1="427.05" x2="599.58" y2="555.19" gradientTransform="translate(0 1400) scale(1 -1)" gradientUnits="userSpaceOnUse">
      <stop offset="0" stop-color="#75bae7"/>
      <stop offset=".22" stop-color="#83c2e9"/>
      <stop offset=".62" stop-color="#a7d8f1"/>
      <stop offset=".87" stop-color="#c1e8f6"/>
    </linearGradient>
    <linearGradient id="linear-gradient2" x1="632.6" y1="654.74" x2="648.65" y2="654.74" gradientTransform="translate(0 1400) scale(1 -1)" gradientUnits="userSpaceOnUse">
      <stop offset="0" stop-color="#005c9b"/>
      <stop offset="0" stop-color="#1e74af"/>
      <stop offset=".03" stop-color="#398ac0"/>
      <stop offset=".05" stop-color="#4f9bce"/>
      <stop offset=".07" stop-color="#60a9d9"/>
      <stop offset=".1" stop-color="#6cb3e1"/>
      <stop offset=".13" stop-color="#73b8e5"/>
      <stop offset=".24" stop-color="#75bae7"/>
      <stop offset=".37" stop-color="#7fc0e9"/>
      <stop offset=".6" stop-color="#9cd1ee"/>
      <stop offset=".85" stop-color="#c1e8f6"/>
    </linearGradient>
    <linearGradient id="linear-gradient3" x1="430.56" y1="658.13" x2="928.19" y2="658.13" gradientTransform="translate(0 1400) scale(1 -1)" gradientUnits="userSpaceOnUse">
      <stop offset="0" stop-color="#70c8b9"/>
      <stop offset="1" stop-color="#000"/>
    </linearGradient>
    <linearGradient id="linear-gradient4" x1="538.82" y1="777.26" x2="1266.43" y2="1492.98" gradientTransform="translate(0 1400) scale(1 -1)" gradientUnits="userSpaceOnUse">
      <stop offset="0" stop-color="#195d85"/>
      <stop offset="0" stop-color="#28688d"/>
      <stop offset=".04" stop-color="#4c84a3"/>
      <stop offset=".07" stop-color="#6d9cb5"/>
      <stop offset=".1" stop-color="#88b1c5"/>
      <stop offset=".13" stop-color="#9ec1d2"/>
      <stop offset=".18" stop-color="#afcedc"/>
      <stop offset=".23" stop-color="#bbd7e2"/>
      <stop offset=".3" stop-color="#c2dce6"/>
      <stop offset=".51" stop-color="#c4dee8"/>
    </linearGradient>
    <linearGradient id="linear-gradient5" x1="430.53" y1="672.2" x2="928.24" y2="672.2" gradientTransform="translate(0 1400) scale(1 -1)" gradientUnits="userSpaceOnUse">
      <stop offset="0" stop-color="#70c8b9"/>
      <stop offset="1" stop-color="#000"/>
    </linearGradient>
    <linearGradient id="linear-gradient6" x1="215.77" y1="672.2" x2="1230.7" y2="672.2" gradientTransform="translate(0 1400) scale(1 -1)" gradientUnits="userSpaceOnUse">
      <stop offset="0" stop-color="#70c8b9"/>
      <stop offset="1" stop-color="#000"/>
    </linearGradient>
  </defs>
  <path class="st7" d="M878.03,813.32c-53.35,78.86-213.8,276.05-213.8,276.05,0,0-160.45-197.19-213.8-276.05-105.08-155.32-90.85-308.37,17.54-416.77,54.2-54.2,125.23-81.3,196.26-81.3s142.06,27.1,196.26,81.3c108.39,108.39,122.62,261.45,17.54,416.77Z"/>
  <g>
    <path class="st0" d="M619.76,754.9s-7.48,6.62-20.09,14.33c16.01-6.94,33.91-20.54,54.92-33.51-21.38,11.76-34.84,19.19-34.84,19.19h.01Z"/>
    <path class="st2" d="M814.85,822.27c-8.93,19.82-17.89,20.81-48.85,59.8-5.5,5.76-11.02,12.71-15.91,21.01-22.52,38.21-16.45,79.21-13.03,95.56-24.27,30.24-48.53,60.48-72.8,90.72-22.07-27.42-44.15-54.84-66.22-82.26,38.92-29.92,66.59-58.94,85.03-80.64,13.56-15.95,23.18-31.46,42.47-62.43,16.14-25.91,25.24-43.03,18.18-54.13-2.39-3.76-6.27-6.86-12.07-8.93-12.74-4.9-29.55,2.16-48.32,11.95-1.97,1.02-3.95,2.08-5.95,3.14-10.98,5.88-22.53,12.34-34.25,17.65-32.82,14.76-69.46,22.95-121.35-9.82-17.62-11.26-31.43-24.57-42.18-39.5,31.74,13.17,62.44,9.27,86.97.67,13.02-4.58,24.32-10.47,33.1-15.85,10.54-4.56,21.91-12.03,34.44-20.3.02-.01.04-.02.06-.03,1.46-.78,2.13-1.35,5.14-1.33,4.79.02,3.48-.97,5.02-2.95.61-.78.85-1.78.92-2.98,3.04-1.97,6.15-3.96,9.34-5.92,8.47-4.67,18.13-9.98,28.8-15.83,6.34-2.97,12.79-5.62,19.31-7.79,36.2-12.03,74.54-9.43,106.03,32.35,18.32,24.59,17.55,52.41,6.11,77.81v.03Z"/>
    <path class="st1" d="M639.32,747.56c-3.01-.02-3.68.55-5.14,1.33,3.59-2.37,7.29-4.82,11.08-7.26-.06,1.2-.31,2.2-.92,2.98-1.54,1.97-.24,2.97-5.02,2.95Z"/>
    <path class="st3" d="M599.68,769.22c-10.37,4.5-19.95,6.24-29.06,3.09-6.49-2.19-11.77-5.73-16.16-10.1-42.97-.68-79.56-37.91-103.79-71.4.63,18.8,3.34,36.91,8.53,53.64,4.81,14.38,11.6,27.71,20.41,39.95,48.6,20.15,94.75.32,120.07-15.19h0Z"/>
    <path class="st6" d="M769.05,360.23c-116,4.09-256.42,49.16-325.1,160.56-10.69,17.21-27.47,57.35,8.39,38.51,35.09-18.03,9.16,45.05,5.34,61.44-5.42,23.72-7.76,47.4-7,70.06.63,18.8,3.34,36.91,8.53,53.64,4.81,14.38,11.6,27.71,20.41,39.95,48.6,20.15,94.75.32,120.07-15.19-10.37,4.5-19.95,6.24-29.06,3.09-6.49-2.19-11.77-5.73-16.16-10.1-21.87-21.79-19.31-66.38-9.79-92.32,16.8-45.05,48.85-81.09,91.59-112.25,47.31-34.4,104.55-61.4,165.6-86.81,30.53-11.48,99.98-33.59,117.53-48.35,34.34-29.49-35.11-67.16-150.34-62.25v.02Z"/>
    <path class="st5" d="M654.6,735.71c8.47-4.67,18.13-9.97,28.81-15.82-5.38,2.52-10.68,5.26-15.85,8.18-4.45,2.48-8.75,5.05-12.95,7.65h-.01Z"/>
    <path class="st4" d="M654.6,735.71c8.47-4.67,18.13-9.97,28.81-15.82-5.38,2.52-10.68,5.26-15.85,8.18-4.45,2.48-8.75,5.05-12.95,7.65h-.01Z"/>
    <path class="st8" d="M907.84,481.14c-2.24-.36-5.26-.88-8.64-.63-1.73.14-4.69.07-6.39-.03-.26-.01-.59-.01-.67-.29-.07-.22.19-.36.51-.58.31-.24.96-.34,1.3-.48.91-.34,2.05-.94,3.3-1.66,1.35-.27,3.17-1.07,4.42-1.89.99-.18,2.69-.45,3.53-1.04.42-.3.83-.62,1.11-1.09.28-.46.36-1.12.06-1.5-.22-.29-.62-.41-.98-.34-1.99.38-4.13.6-5.94.64-.51.01-1.32.26-1.82.48-1.87.83-3.46,1.24-4.98,1.42-1.14.15-2.28.02-3.42.09-1.65.1-5.48.34-7.09.94-5.43,2-10.81,3.68-12.45,3.56-2.99-.73-8-3.83-10.2-5.31-2.81-1.9-5.83-4.51-8.97-6.93-3.14-2.43-13.39-5.57-18.26-6.02-4.87-.46-9.26-3.58-13.57-4.84-4.29-1.26-11.08-1.26-14.85.17-3.77,1.43-14.51,2.82-21.74,4.09-5.24.92-14.58,2.32-19.03,2.25-4.46-.07-10.71,2.12-15.72,2.82-5.01.7-7.41,1.84-9.71,3.11-1.18.65-2.16,1.11-4.73,2.2-1,.42-2.45,1.12-4.71.78-2.5-.38-3.38-.73-5.87-.31-1.3.23-2.15.79-3.23.4-1.46-.54-2.76-2.25-3.14-4.2-.35-1.78-.59-3.2-.53-4.99.05-1.79.81-1.86,1.7-2.25.88-.39,1.54-2.12,1.34-3.29-.32-1.82.41-3.11.69-5.42.44-3.48.59-4.48.07-5.94-.5-1.46-1.23-1.92-2.71-1.3,1.25-2.02.03-4.12,1.18-4.76-.51-1.84-1.11-2.88-3.42-4.59l2.92,1.27c-1.52-1.78-2-4.45-4.07-7.5l2.8.18c-3.71-1.25-3.54-3.98-4.38-5.11.43-.32,1.39-.64,1.39-.64-2.53-2.41-3.55-1.9-6.1-2.42-2.55-.52-3.4-1.24-4.88-2.66-.42-.4-.95-1.43.12-2.42-1.2.45-2.96-.21-4.66,1.5-1.09,1.11-1.4-.09-3.07.61-1.81.76-3.8,1.74-2.98-.56-.83-.15-2.34.55-3.07,1.2-1.25,1.61-3.64,1.51-4.32,3.58-.62,1.87-2.65,2.36-4.07,3.45s-2.21,1.03-1.12-.65c-.19.17-1.76,1.58-2.13,2.04-.76,1-.99,1.34-1.71,3.51-.71,2.18-.5,2.43-1.35,4.55-.83,2.12-1.54,2.28-1.59.81-.67,1.65-1.43,3.46-1.03,6.24.41,2.78.77,3.19.76,5.08-.02,1.89.37,6.11,1.22,9.51-1.28,1.98,2.49,10.23,3.78,10.65,1.45,3.54,3.01,6.17,4.88,7.96,1.87,1.8,2.33,2,3.5,4.07,1.18,2.08.84,3.39.48,5.61-1.5.87-3.18,3.43-5.17,4.17-2.63.99-13.21,6.96-16.74,8.22-5.13,1.85-12.54,8.66-17.32,16.74-2.71,4.6-6.71,10.64-10.22,16.89-1.93,3.45-4.6,6.97-7.7,9.4-3.1,2.43-6.65,6.25-8.84,9.9-2.2,3.65-4.01,6.35-6.27,8.51-2.25,2.17-1.88,1.93-4.52,4.97-2.65,3.04-2.63,4.21-3.93,6.89-1.3,2.69-1.96,6.64-3.26,11-1.44,4.83-2.71,9.87-4.06,17.4-1.03,5.72-1.96,9.77-2.75,12.25-.67,2.14-1.2,3.62-2.9,5.54-.74.84-3.31,3.37-4.95,5.85-1.11,1.7-1.35,2.39-1.05,4.86-.57.86-.62,1.3-1.21,2.49-.45.93-.82,1.88-1.28,3.83-.47,1.98-.78,2.71-1.04,4.97-.26,2.27-.42,2.74.01,4.19.44,1.46,1.47,1.03,2.32-.24,1.03-1.55,1.54-3.12,1.52-5.32.75-.91,1.52-3.9,1.53-4.91.29-.7.59-1.63.83-2.08.62.64,1.08,1.19,1.62,1.67-.11.59-.29,1.12-.3,1.84,0,1.32-.24,1.93-.43,3.21-.35,2.43-.34,3.59-.34,5.6-.01,2.02.53,3.45,1.94,3.49,1.45.03,2.01-2.96,2.13-4.17.12-1.2.47-3.2.31-4.7.34-1.2.67-2.36.95-4.05.27-1.67.64-2.87,1.1-4.47.45-1.61,1.19-3.11,1.99-3.12.81-.01.67,2.31.76,3.37.07,1.07-.03,1.85-.12,3.81-.09,1.96.03,3.22.41,4.64.34,1.34.51,3.22.61,4.44.11,1.23.91,2.6,1.86,2.13,1.09-.53,1.77-1.31,1.87-3.83.06-1.73-.29-2.56-.64-3.91.14-1.1.11-2,.04-3.48.65-2.03.79-3.13.94-5.89.13-2.26-.42-3.44.53-4.27.33-.28,2.19,1.61,2.74,2.28.54.67.95,2.73,1.35,4.44.4,1.72,1.98,3.77,3.71,3.66,2-.11,1.31-2.57,1.07-3.75s-.44-3.04-.73-4.54-1.03-4.24-2.07-5.41c-1.05-1.17-2.04-2.12-3.03-5.01-.57-1.63,0-4.09.81-6.11.81-2.03,4.79-9.6,7.21-12.65,2.43-3.05,7.15-13.91,8.84-17.48s6.57-6.98,9.35-9.22c2.03-1.63,8.77-7.42,11.39-11,2.85-3.9,4.2-7.73,9.5-12.23,5.31-4.48,9.19-10.2,12.71-11.71,3.97-1.72,5.36-.32,6.49,1.18,2.55,3.39,3.44,4.58,6.46,6.93,4.95,3.84,9.1,4.93,12.79,5.79,3.69.86,6.38.79,9.66,3.39,3.65,4.63,4.01,8.57,8.13,10.68,4.03,6.67,2.45,7.97,6.34,11.35,2.14,5.15,2.52,5.29,4.35,7.62,1.83,2.31,2.37,3.87,1.68,7.64-1.91,4.48-1.3,4.46-4.77,5.8-3.64,1.42-6,3.81-11.06,4.84-5.05,1.04-10.89,4.39-14.55,8.51-3.65,4.11-10.17,6.45-13.49,7.88-3.31,1.45-16.29,8.97-17.98,10.52s-2.72,1.32-3.15,3.75c-5.53,3.3-11.15,7.29-14.39,9.89-3.23,2.6-7.17,7.73-7.74,11.61-.56,3.87-2.53,6.43-1.29,9.95,1.23,3.53,1.68,5.75,1.18,8.87s.12,11.26,1.66,15.67c1.54,4.42,4.65,20.63,5.54,26.84.89,6.2,2.67,18.61,2.59,22.91-.05,2.59.24,4.85.14,6.66,3.04-1.97,6.15-3.96,9.34-5.92,8.47-4.67,18.13-9.98,28.8-15.83,6.34-2.97,12.79-5.62,19.31-7.79,1.14-3.73,1.82-7.27,2.09-10.54.9-10.48,2.54-16.04,4.74-16.97,1.04-3.76.11-7.24,4.52-7.6,8.75-.73,12.85-1.5,16.5-2.92,4.26.34,7.62.85,13.6-2.99,5.98-3.85,10.48-6.48,18.71-8.46,8.23-1.97,12.35-2.96,18.88-15.28,6.53-12.31,11.18-19.98,11.45-32.88.28-12.9-3.17-21.86-4.41-29.98s-.25-7.99-2.09-13.28c-1.85-5.3-2.03-14.04-2.91-22.02-.88-7.98-14.02-33.75-12.69-43.56,1.37-7.81,27.24-15.31,29.82-16.51,2.57-1.19,6.03-3.15,7.9-4.11,2.88,1.08,4.86,2.44,6.96,1.69,5.03,1.71,12.16,2.89,17.48,2.2,5.33-.69,11.93.75,16.21,1.07,4.27.32,7.92,1.38,10.3,3.13,1.19.87,2.39,1.75,3.15,3.13.31.55.41,1.26.43,1.95.03,1.1-2.24,9.11-2.56,10.18-.3,1-.99,2.57-.58,3.42.34.69.98.6,1.69.32s1.74-1.08,2.25-1.73c.58-.76,3.54-3.48,4.25-7.68,1.18-1.63,1.86-3.18,2.14-4.07.17-.54.33-1.14.75-1.48.36-.31.82-.32,1.24-.32,2.54-.02,3.42-.17,5.96-.18.73-.01,1.47-.01,2.17.15.69.16,1.29.61,1.97.79,1.49.42,2.87,1.35,4.82,1.62,2.21,1.34,3.23,1.57,5.56,2.03,2.03,1.5,3.78,2.53,5.44,2.67.63.06,1.43-.17,1.77-.44.68-.54,1.58-1.48.82-2.25-.97-.99-1.75-1.63-2.93-2.21-.87-.42-1.93-1.07-3.25-1.97-.75-.53-1.53-1.12-2.39-1.39-1.36-.44-2.67-1.23-3.45-1.9-.18-.16-.78-.78-.9-1.01-.33-.69.27-.84.84-.69.73.18,1.74.44,2.31.61,1.54.48,2.18.38,3.53.3,1.06.5,1.87.73,3.09.76.95.01,1.24-.03,2.34-.14,1.53.6,3.21.78,4.74.49.58-.11,1.77-.78,2.28-1.97.26-.62-.6-1.24-1.05-1.57-2.84-2.14-9.6-2.33-11.38-3.37-.13-.08-1.89-.76-1.94-.91-.15-.41.69-.4,1.42-.46.53-.03,1.52.08,1.91.09,1.07.02,2.48-.56,3.96-.93,1.93.34,2.84.48,4.21.2,1.72.18,3.97-.22,5.21-.83.59-.29.88-.85.93-1.17.15-1.03-.84-1.7-2.66-1.97l-.03-.03ZM677.24,675.51c-.83,4.01-4.53,17.15-10.42,34.04.89-4.76-.09-8.44,1.27-13.49,1.36-5.03.49-7.01.96-12.95.48-5.94-2.66-7.64-4-11.46-1.34-3.83.5-3.13,3.09-3.93s9.63-5.28,11.38-6.65c-2.3,3.46-1.46,10.41-2.29,14.44h0ZM683.28,813.22c.02-.09.04-.19.06-.29-1.97,1.02-3.95,2.08-5.95,3.14,1.97-.92,3.93-1.87,5.89-2.86h0ZM618.53,753.7c-2.38,1.39-1.6,2.7-6.23,2.22-4.63-.48-7.55-3.38-9.04-2.16-1.49,1.22-2.07,2.27-1.19,3.88.88,1.62,1.28,2.79,2.76,3.35-5.6,2.21-18.74,5.64-33.61,15.04-2.45,1.55-4.72,2.9-6.84,4.14.71,1.66,1.43,3.3,2.19,4.91,13.02-4.58,24.32-10.47,33.1-15.85,10.54-4.56,21.91-12.03,34.44-20.3-.84.46-1.98,1-3.99,1.53-5.53,1.47-9.22,1.85-11.6,3.25h0Z"/>
  </g>
</svg>